<svg xmlns="http://www.w3.org/2000/svg" xmlns:svgjs="http://svgjs.com/svgjs" xmlns:xlink="http://www.w3.org/1999/xlink" width="288" height="288"><svg xmlns="http://www.w3.org/2000/svg" width="288" height="288" version="1.0" viewBox="0 0 50 50"><g fill="#e40f0f" class="color000 svgShape" transform="matrix(.1 0 0 -.1 0 50)"><path d="M199 420 c-91 -27 -143 -121 -118 -212 7 -29 7 -43 -2 -54 -10 -12-2 -14 52 -14 63 0 64 1 41 18 -31 24 -52 87 -41 125 20 71 97 111 162 84 79
-33 100 -136 41 -198 l-28 -29 64 0 c56 0 61 2 46 13 -15 11 -16 17 -7 35 14
26 14 92 0 129 -30 80 -128 128 -210 103z" class="color000 svgShape"/><path d="M210 290 c-24 -24 -25 -38 -4 -68 17 -24 62 -30 82 -10 18 18 14 63
-6 81 -25 22 -48 21 -72 -3z" class="color000 svgShape"/></g></svg></svg>